<?xml version="1.0" encoding="UTF-8" standalone="no"?><!DOCTYPE svg PUBLIC "-//W3C//DTD SVG 1.1//EN" "http://www.w3.org/Graphics/SVG/1.1/DTD/svg11.dtd"><svg width="100%" height="100%" viewBox="0 0 100 125" version="1.1" xmlns="http://www.w3.org/2000/svg" xmlns:xlink="http://www.w3.org/1999/xlink" xml:space="preserve" style="fill-rule:evenodd;clip-rule:evenodd;stroke-linejoin:round;stroke-miterlimit:2;"><path d="M64.23,21.969l22.7,25.451c0,7.567 -7.567,16.509 -7.567,26.139c0,15.821 20.636,15.821 20.636,-0.688c0,-11.694 -8.255,-25.451 -12.382,-28.891l-23.387,-22.011Zm-16.509,-5.503l27.515,27.515l-55.03,0l27.515,-27.515Zm1.72,-10.318c-1.72,-1.72 -1.72,-1.72 -3.439,0l-44.712,46.432c-1.72,1.72 -1.72,1.72 0,3.439l37.833,37.833c1.72,1.72 1.72,1.72 3.439,0l44.712,-46.432l0,-3.439l-37.833,-37.833Z" style="fill:#fff;fill-rule:nonzero;"/></svg>