<?xml version="1.0" encoding="UTF-8" standalone="no"?>
<!DOCTYPE svg PUBLIC "-//W3C//DTD SVG 1.1//EN" "http://www.w3.org/Graphics/SVG/1.1/DTD/svg11.dtd">
<svg viewBox="0 0 400 100" version="1.1" xmlns="http://www.w3.org/2000/svg" xmlns:xlink="http://www.w3.org/1999/xlink" xml:space="preserve" style="fill-rule:evenodd;clip-rule:evenodd;stroke-linecap:round;stroke-linejoin:round;stroke-miterlimit:1.5;">
    <g transform="matrix(6.12323e-17,1,-1,6.12323e-17,389.702,-390.097)">
        <path d="M440.097,6.434L483.076,92.393L397.118,92.393L440.097,6.434Z" style="fill:white;stroke:black;stroke-width:8.96px;"/>
    </g>
    <g transform="matrix(1,0,0,1,3.99745,2.13163e-14)">
        <path d="M91.823,7.021L91.823,92.979L34.224,92.979C22.364,92.979 12.735,83.35 12.735,71.49L12.735,28.51C12.735,16.65 22.364,7.021 34.224,7.021L91.823,7.021Z" style="stroke:black;stroke-width:8.96px;"/>
    </g>
    <g transform="matrix(1,0,0,1,-37.9266,3.55271e-15)">
        <path d="M171.247,7.021L238.773,50L171.247,92.979L148.794,92.979L148.794,7.021L171.247,7.021Z" style="stroke:black;stroke-width:8.96px;"/>
    </g>
    <g transform="matrix(1,0,0,1,-37.9266,3.55271e-15)">
        <path d="M230.228,50L297.755,7.021L320.208,7.021L320.208,92.979L297.755,92.979L230.228,50Z" style="fill:white;stroke:black;stroke-width:8.96px;"/>
    </g>
</svg>
